<svg width="15" height="15" viewBox="0 0 15 15" fill="none" xmlns="http://www.w3.org/2000/svg">
<path d="M14.9928 11.8375C15.0246 12.081 14.9504 12.2927 14.7705 12.4727L12.6586 14.5687C12.5633 14.6746 12.4389 14.7646 12.2854 14.8386C12.1319 14.9128 11.9811 14.9604 11.8329 14.9816C11.8223 14.9816 11.7905 14.9843 11.7376 14.9896C11.6847 14.9948 11.6159 14.9975 11.5312 14.9975C11.33 14.9975 11.0045 14.9631 10.5545 14.8943C10.1046 14.8255 9.55416 14.6561 8.90315 14.3862C8.25199 14.1162 7.51362 13.7112 6.68792 13.1714C5.86221 12.6316 4.98352 11.8905 4.05193 10.9483C3.31089 10.2178 2.69688 9.51911 2.20991 8.8522C1.72295 8.18524 1.33125 7.56858 1.03484 7.00222C0.738394 6.43585 0.516082 5.92242 0.367874 5.46191C0.219666 5.00141 0.119096 4.60442 0.0661643 4.27095C0.0132329 3.93749 -0.00793972 3.67547 0.00264657 3.48492C0.0132329 3.29437 0.018526 3.18851 0.018526 3.16733C0.0396986 3.01912 0.0873369 2.86827 0.161441 2.71477C0.235545 2.56127 0.325529 2.43688 0.431391 2.3416L2.54336 0.229636C2.69157 0.0814283 2.86095 0.00732422 3.0515 0.00732422C3.18912 0.00732422 3.31086 0.0470228 3.41673 0.12642C3.52259 0.205817 3.61257 0.30374 3.68668 0.42019L5.38578 3.64372C5.48105 3.8131 5.50752 3.99836 5.46517 4.1995C5.42283 4.40064 5.33285 4.57002 5.19522 4.70764L4.41713 5.48573C4.39596 5.5069 4.37743 5.54131 4.36155 5.58895C4.34567 5.63659 4.33773 5.67628 4.33773 5.70804C4.38008 5.93036 4.47536 6.18443 4.62356 6.47026C4.7506 6.72433 4.94645 7.03398 5.2111 7.3992C5.47576 7.76443 5.85157 8.18521 6.33854 8.66159C6.81493 9.14861 7.23838 9.52702 7.6089 9.79703C7.97934 10.0669 8.28909 10.2654 8.53787 10.3925C8.78665 10.5195 8.9772 10.5963 9.10951 10.6227L9.30795 10.6624C9.32912 10.6624 9.3636 10.6544 9.41119 10.6386C9.45883 10.6227 9.49323 10.6042 9.51443 10.583L10.4195 9.66195C10.6102 9.49259 10.8324 9.4079 11.0865 9.4079C11.2665 9.4079 11.4094 9.43963 11.5152 9.50318H11.5311L14.5958 11.3134C14.8182 11.4512 14.9505 11.6258 14.9928 11.8375Z" fill="white"/>
</svg>
