<svg width="135" height="30" viewBox="0 0 135 30" fill="none" xmlns="http://www.w3.org/2000/svg">
<path d="M42.921 16.9962H39.6325L35.0399 10.4373V16.9962H32.3184V2.05322H35.0399V8.49809L39.6325 2.05322H42.921L37.3079 9.41064L42.921 16.9962Z" fill="#17306D"/>
<path d="M57.6629 16.9962H54.6578L50.6322 5.93155L46.6066 16.9962H43.6016L49.3848 2.05322H51.7662L57.6629 16.9962Z" fill="#17306D"/>
<path d="M71.2707 16.9962H68.5492V6.50189L61.9154 16.9962H59.1938V2.05322H61.9154V12.5475L68.5492 2.05322H71.2707V16.9962Z" fill="#17306D"/>
<path d="M89.6978 16.9962H86.9762V5.81748L83.0073 16.9962H80.6827L76.7137 5.81748V16.9962H73.9922V2.05322H77.7343L81.8733 13.4601L86.0123 2.05322H89.7545V16.9962H89.6978Z" fill="#17306D"/>
<path d="M105.743 16.9962H102.738L101.208 13.1179H95.7644L94.2336 16.9962H91.2285L97.4087 2.05322H99.62L105.743 16.9962ZM100.187 10.4373L98.486 6.10265L96.785 10.4373H100.187Z" fill="#17306D"/>
<path d="M113.228 4.73383H110.506V16.9962H107.728V4.73383H105.006V2.05322H113.228V4.73383Z" fill="#17306D"/>
<path d="M123.887 12.4905C123.887 13.9164 123.433 15.1141 122.47 15.9696C121.562 16.8821 120.372 17.2814 118.954 17.2814C117.537 17.2814 116.403 16.8251 115.439 15.9696C114.475 15.057 114.021 13.9164 114.021 12.4905C114.021 11.578 114.248 10.7795 114.702 10.0951C115.099 9.46769 115.722 8.95438 116.46 8.66921C115.949 8.327 115.552 7.92776 115.326 7.41445C115.099 6.90115 114.985 6.38784 114.985 5.87453C114.985 4.79088 115.326 3.87833 115.949 3.13689C116.686 2.22434 117.707 1.76807 119.011 1.76807C120.202 1.76807 121.109 2.16731 121.903 2.90875C122.64 3.6502 123.037 4.67681 123.037 5.87453C123.037 6.50191 122.867 7.07225 122.583 7.58556C122.356 8.04183 122.016 8.38404 121.562 8.66921C122.243 8.95438 122.753 9.41065 123.207 9.92396C123.604 10.6654 123.887 11.4639 123.887 12.4905ZM121.222 12.4335C121.222 11.7491 120.995 11.1787 120.599 10.7224C120.145 10.2662 119.635 10.038 118.954 10.038C118.331 10.038 117.764 10.2662 117.367 10.7224C116.913 11.1787 116.686 11.7491 116.686 12.4335C116.686 13.1179 116.913 13.6312 117.31 14.0875C117.764 14.5437 118.274 14.7719 118.954 14.7719C119.635 14.7719 120.145 14.5437 120.599 14.0875C120.995 13.6882 121.222 13.1179 121.222 12.4335ZM120.485 5.93156C120.485 5.47529 120.315 5.07605 120.032 4.79088C119.748 4.50571 119.351 4.33461 118.954 4.33461C118.501 4.33461 118.104 4.50571 117.82 4.79088C117.537 5.07605 117.367 5.47529 117.367 5.93156C117.367 6.38784 117.537 6.78708 117.82 7.07225C118.104 7.35742 118.501 7.52852 118.954 7.52852C119.408 7.52852 119.805 7.35742 120.088 7.07225C120.372 6.78708 120.485 6.38784 120.485 5.93156Z" fill="#17306D"/>
<path d="M135 16.9961H125.418V14.4295L130.521 9.63864C131.145 9.0683 131.542 8.61202 131.768 8.38389C132.165 7.87058 132.335 7.2432 132.335 6.61583C132.335 5.98845 132.165 5.47514 131.825 5.0759C131.428 4.61963 130.918 4.39149 130.181 4.39149C129.387 4.39149 128.82 4.67666 128.423 5.30404C128.083 5.81735 127.913 6.50176 127.913 7.2432H125.248C125.248 5.76031 125.645 4.50556 126.382 3.53598C127.233 2.39529 128.48 1.82495 130.124 1.82495C131.542 1.82495 132.732 2.28122 133.639 3.13674C134.547 3.99225 135 5.18997 135 6.67286C135 7.58541 134.773 8.44092 134.32 9.2394C133.866 10.0379 133.073 10.9504 131.995 11.92L129.16 14.4865H135V16.9961Z" fill="#17306D"/>
<path d="M34.5866 22.9849H35.0969L37.2514 28.175H36.6844L36.1174 26.7491H33.6794L33.1124 28.175H32.5454L34.5866 22.9849ZM35.8339 26.1788L34.8701 23.7263L33.9062 26.1788H35.8339Z" fill="#938686"/>
<path d="M40.313 22.9849H40.88V28.175H40.313V22.9849Z" fill="#938686"/>
<path d="M44.6226 22.9849H46.6637C47.5709 22.9849 48.2513 23.6693 48.2513 24.5248C48.2513 25.0951 47.9678 25.4944 47.741 25.7225C47.5709 25.8366 47.4008 25.9506 47.2307 26.0077L48.4214 28.175H47.7977L46.6637 26.1217H45.1895V28.175H44.6226V22.9849ZM46.6637 25.5514C47.2874 25.5514 47.6843 25.1522 47.6843 24.5248C47.6843 23.8974 47.2874 23.4982 46.6637 23.4982H45.1328V25.5514H46.6637Z" fill="#938686"/>
<path d="M59.9879 27.1483C59.8178 27.3194 59.6477 27.5476 59.4209 27.6616C59.0807 27.9468 58.5137 28.1749 57.8333 28.1749C56.3591 28.1749 55.1685 26.9772 55.1685 25.4943C55.1685 24.0114 56.3591 22.8137 57.8333 22.8137C58.5137 22.8137 59.0807 23.0989 59.4209 23.327C59.591 23.4981 59.8178 23.6692 59.9312 23.8403L59.591 24.1825C59.4776 24.0114 59.3075 23.8403 59.1374 23.7263C58.8539 23.4981 58.4003 23.27 57.8333 23.27C56.6426 23.27 55.7354 24.1825 55.7354 25.4373C55.7354 26.692 56.6426 27.6046 57.8333 27.6046C58.4003 27.6046 58.8539 27.3765 59.1374 27.1483C59.3075 27.0343 59.4776 26.8631 59.591 26.692L59.9879 27.1483Z" fill="#938686"/>
<path d="M65.431 22.9277C66.9051 22.9277 68.0958 24.1255 68.0958 25.6083C68.0958 27.0912 66.9051 28.2889 65.431 28.2889C63.9568 28.2889 62.7661 27.0912 62.7661 25.6083C62.7661 24.1255 63.9568 22.9277 65.431 22.9277ZM67.5288 25.5513C67.5288 24.3536 66.6216 23.384 65.431 23.384C64.2403 23.384 63.3331 24.2966 63.3331 25.5513C63.3331 26.8061 64.2403 27.7186 65.431 27.7186C66.5649 27.7186 67.5288 26.8061 67.5288 25.5513Z" fill="#938686"/>
<path d="M71.4409 22.9849H71.8945L75.0696 27.1484V22.9849H75.6366V28.175H75.1831L72.0079 24.0115V28.175H71.4409V22.9849Z" fill="#938686"/>
<path d="M79.3784 22.9849H80.966C82.4969 22.9849 83.6308 24.1826 83.6308 25.5514C83.6308 26.9202 82.4402 28.1179 80.966 28.1179H79.3784V22.9849ZM81.0227 27.6617C82.2134 27.6617 83.1772 26.7491 83.1772 25.6084C83.1772 24.4678 82.2701 23.5552 81.0227 23.5552H79.9454V27.7187H81.0227V27.6617Z" fill="#938686"/>
<path d="M87.0898 22.9849H87.6568V28.175H87.0898V22.9849Z" fill="#938686"/>
<path d="M92.3625 23.4982H90.7749V22.9849H94.5737V23.4982H92.9862V28.175H92.4192V23.4982H92.3625Z" fill="#938686"/>
<path d="M97.6924 22.9849H98.2594V28.175H97.6924V22.9849Z" fill="#938686"/>
<path d="M104.269 22.9277C105.744 22.9277 106.934 24.1255 106.934 25.6083C106.934 27.0912 105.744 28.2889 104.269 28.2889C102.795 28.2889 101.604 27.0912 101.604 25.6083C101.661 24.1255 102.795 22.9277 104.269 22.9277ZM106.367 25.5513C106.367 24.3536 105.46 23.384 104.269 23.384C103.079 23.384 102.171 24.2966 102.171 25.5513C102.171 26.8061 103.079 27.7186 104.269 27.7186C105.46 27.7186 106.367 26.8061 106.367 25.5513Z" fill="#938686"/>
<path d="M110.336 22.9849H110.79L113.965 27.1484V22.9849H114.532V28.175H114.078L110.903 24.0115V28.175H110.336V22.9849Z" fill="#938686"/>
<path d="M118.274 22.9849H118.841V28.175H118.274V22.9849Z" fill="#938686"/>
<path d="M122.583 22.9849H123.037L126.212 27.1484V22.9849H126.779V28.175H126.326L123.15 24.0115V28.175H122.583V22.9849Z" fill="#938686"/>
<path d="M133.242 25.4943H134.943V27.1483C134.773 27.3194 134.603 27.5476 134.376 27.6616C133.98 27.9468 133.469 28.1749 132.789 28.1749C131.315 28.1749 130.124 26.9772 130.124 25.4943C130.124 24.0114 131.315 22.8137 132.789 22.8137C133.469 22.8137 134.036 23.0989 134.376 23.327C134.547 23.4981 134.773 23.6692 134.887 23.8403L134.547 24.1825C134.433 24.0114 134.263 23.8403 134.093 23.7263C133.809 23.4981 133.356 23.27 132.789 23.27C131.598 23.27 130.691 24.1825 130.691 25.4373C130.691 26.692 131.598 27.6046 132.789 27.6046C133.356 27.6046 133.753 27.4335 134.036 27.2624C134.206 27.1483 134.32 27.0343 134.433 26.9202V25.9506H133.242V25.4943Z" fill="#938686"/>
<path d="M25.8552 16.4259L20.4688 18.251L18.3142 16.9962V15V13.0038L20.4688 11.7491L25.8552 13.6312C26.2521 13.8023 26.649 13.5171 26.7624 13.1749C26.9325 12.7757 26.649 12.3764 26.3088 12.2624L22.113 10.8365L26.0253 8.55513C26.3655 8.327 26.4789 7.87072 26.3088 7.52852C26.1387 7.18631 25.6284 7.07224 25.2882 7.24335L21.376 9.52472L22.2264 5.19011C22.3398 4.79087 22.0563 4.39164 21.6595 4.3346C21.2626 4.22053 20.8657 4.5057 20.809 4.90494L19.7317 10.4943L17.5771 11.7491L15.8762 10.8365L15.8195 10.7795L14.1185 9.80989V7.30038L18.3709 3.53612C18.7111 3.25095 18.7111 2.79468 18.4276 2.50951C18.1441 2.1673 17.6905 2.1673 17.407 2.45247L14.1752 5.36122V0.741445C14.1752 0.342205 13.835 0 13.3814 0C12.9845 0 12.6443 0.342205 12.6443 0.741445V5.30418L9.3558 2.45247C9.01561 2.1673 8.56202 2.22433 8.33522 2.50951C8.05173 2.85171 8.10843 3.30798 8.39192 3.53612L12.6443 7.30038V9.80989L10.9434 10.7795L9.24241 11.7491L7.08785 10.4943L6.01057 4.90494C5.89717 4.5057 5.55698 4.22053 5.16009 4.3346C4.7632 4.44867 4.4797 4.79087 4.5931 5.19011L5.44358 9.52472L1.53136 7.24335C1.19117 7.01521 0.737577 7.12928 0.510782 7.52852C0.283987 7.92776 0.397384 8.327 0.794276 8.55513L4.7065 10.8365L0.567481 12.2624C0.170589 12.4335 -0.0562066 12.8327 0.11389 13.1749C0.283987 13.5741 0.680879 13.8023 1.02107 13.6312L6.40746 11.7491L8.56202 13.0038V15V16.9962H8.61872L6.35076 18.251L0.964373 16.3688C0.567481 16.1977 0.170589 16.4829 0.0571912 16.8251C-0.112905 17.2243 0.170589 17.6236 0.510782 17.7376L4.6498 19.1635L0.737577 21.4449C0.397384 21.673 0.283987 22.1293 0.454083 22.4715C0.680879 22.8137 1.13447 22.9278 1.47466 22.7567L5.38688 20.4753L4.5364 24.8099C4.423 25.2091 4.7065 25.6084 5.10339 25.6654C5.50028 25.7795 5.89717 25.4943 5.95387 25.0951L7.03115 19.5057L9.18571 18.251L10.8867 19.2205L12.5876 20.1901V22.6996L8.33522 26.4639C7.99503 26.7491 7.99503 27.2053 8.27853 27.4905C8.56202 27.8327 9.01561 27.8327 9.29911 27.5475L12.5876 24.6388V29.2586C12.5876 29.6578 12.9278 30 13.3247 30C13.7216 30 14.0618 29.6578 14.0618 29.2586V24.6958L17.3503 27.6046C17.6905 27.8897 18.1441 27.8327 18.3709 27.5475C18.6544 27.2053 18.5977 26.7491 18.3142 26.5209L14.1752 22.7567V20.2472L15.8762 19.2776L17.5771 18.308L19.7317 19.5627L20.809 25.1521C20.9224 25.5513 21.2626 25.8365 21.6595 25.7224C22.0563 25.6084 22.3398 25.2662 22.2264 24.8669L21.376 20.5323L25.2882 22.8137C25.6284 23.0418 26.082 22.9278 26.3088 22.5285C26.5356 22.1863 26.4222 21.73 26.0253 21.5019L22.113 19.2205L26.2521 17.7947C26.649 17.6236 26.8758 17.2243 26.7057 16.8821C26.5923 16.4829 26.1954 16.2548 25.8552 16.4259ZM16.7267 15V16.9962L15.0257 17.9658L13.3814 18.9354L11.6805 17.9658L9.97949 16.9962V15.057V13.0608L11.6805 12.0913L13.3814 11.1217L15.0824 12.0913L15.1391 12.1483L16.7834 13.1179V15H16.7267Z" fill="#17306D"/>
</svg>
